<svg width="614" height="255" viewBox="0 0 614 255" fill="none" xmlns="http://www.w3.org/2000/svg">
<path d="M7.60042 170.68C11.0808 173.061 15.935 175.351 22.1631 177.549C28.5743 179.564 35.8098 180.571 43.8696 180.571C54.1276 180.571 62.4622 178.098 68.8734 173.152C75.2846 168.023 78.4903 160.055 78.4903 149.248C78.4903 142.104 76.6585 135.876 72.9949 130.564C69.3314 125.251 64.7519 120.397 59.2566 116.001C53.7612 111.421 47.808 107.025 41.3967 102.812C35.1687 98.4159 29.307 93.6532 23.8117 88.5242C18.3163 83.2121 13.7369 77.1672 10.0733 70.3896C6.40976 63.6121 4.57798 55.4606 4.57798 45.9354C4.57798 30.5484 9.15743 19.1914 18.3163 11.8643C27.6584 4.35402 39.7481 0.598877 54.5855 0.598877C63.7444 0.598877 71.8958 1.42318 79.0398 3.07178C86.1837 4.72038 91.9538 6.82693 96.3501 9.39142L89.7557 27.526C86.4585 25.5111 81.6959 23.6793 75.4678 22.0307C69.4229 20.3821 62.3706 19.5578 54.3108 19.5578C44.4192 19.5578 37.0921 22.0307 32.3294 26.9765C27.5668 31.7391 25.1855 37.784 25.1855 45.1111C25.1855 51.5223 27.0173 57.2008 30.6808 62.1466C34.3444 67.0924 38.9238 71.7635 44.4192 76.1597C49.9145 80.556 55.7762 85.0439 62.0042 89.6233C68.4155 94.0196 74.3688 98.9654 79.8641 104.461C85.3594 109.956 89.9389 116.184 93.6024 123.145C97.266 130.106 99.0978 138.349 99.0978 147.874C99.0978 163.994 94.3351 176.633 84.8099 185.792C75.2846 194.951 61.8211 199.53 44.4192 199.53C33.4285 199.53 24.3612 198.523 17.2173 196.508C10.2565 194.493 4.66957 192.203 0.456482 189.638L7.60042 170.68Z" fill="#2B2B2B"/>
<path d="M128.425 58.8494H148.208V196.233H128.425V58.8494ZM124.853 17.0849C124.853 12.6886 126.044 9.11664 128.425 6.36897C130.989 3.62131 134.287 2.24747 138.316 2.24747C142.346 2.24747 145.644 3.62131 148.208 6.36897C150.956 8.93346 152.33 12.5054 152.33 17.0849C152.33 21.4812 150.956 24.9615 148.208 27.526C145.644 29.9073 142.346 31.098 138.316 31.098C134.287 31.098 130.989 29.8157 128.425 27.2513C126.044 24.6868 124.853 21.298 124.853 17.0849Z" fill="#2B2B2B"/>
<path d="M271.248 202.552C271.248 220.321 267.309 233.418 259.433 241.844C251.556 250.27 240.108 254.483 225.087 254.483C215.928 254.483 208.418 253.659 202.556 252.01C196.694 250.545 191.932 248.805 188.268 246.79L194.038 229.754C197.702 231.403 201.732 232.96 206.128 234.425C210.524 235.891 215.928 236.624 222.339 236.624C233.513 236.624 241.115 233.51 245.145 227.281C249.358 221.053 251.465 210.612 251.465 195.958V185.792H250.64C247.709 190.005 243.954 193.302 239.375 195.683C234.795 198.065 228.934 199.255 221.79 199.255C206.952 199.255 196.053 193.577 189.092 182.22C182.132 170.68 178.651 152.636 178.651 128.091C178.651 104.461 183.139 86.6009 192.115 74.5111C201.274 62.4214 214.737 56.3765 232.506 56.3765C241.115 56.3765 248.534 57.2008 254.762 58.8494C260.99 60.498 266.485 62.4214 271.248 64.6195V202.552ZM251.465 78.6326C245.969 75.7018 238.917 74.2364 230.307 74.2364C220.965 74.2364 213.455 78.5411 207.777 87.1504C202.098 95.5766 199.259 109.132 199.259 127.816C199.259 135.509 199.717 142.653 200.633 149.248C201.549 155.659 203.106 161.337 205.304 166.283C207.502 171.046 210.25 174.801 213.547 177.549C217.027 180.113 221.24 181.395 226.186 181.395C233.147 181.395 238.642 179.564 242.672 175.9C246.702 172.237 249.633 166.741 251.465 159.414V78.6326Z" fill="#2B2B2B"/>
<path d="M306.594 58.8494H326.377V196.233H306.594V58.8494ZM303.022 17.0849C303.022 12.6886 304.213 9.11664 306.594 6.36897C309.158 3.62131 312.456 2.24747 316.486 2.24747C320.515 2.24747 323.813 3.62131 326.377 6.36897C329.125 8.93346 330.499 12.5054 330.499 17.0849C330.499 21.4812 329.125 24.9615 326.377 27.526C323.813 29.9073 320.515 31.098 316.486 31.098C312.456 31.098 309.158 29.8157 306.594 27.2513C304.213 24.6868 303.022 21.298 303.022 17.0849Z" fill="#2B2B2B"/>
<path d="M384.022 163.536C384.022 169.947 384.847 174.526 386.495 177.274C388.327 180.022 390.8 181.395 393.914 181.395C397.761 181.395 402.249 180.388 407.377 178.373L409.301 194.309C406.92 195.775 403.531 196.966 399.134 197.881C394.921 198.797 391.075 199.255 387.594 199.255C380.634 199.255 374.955 197.149 370.559 192.936C366.346 188.539 364.239 180.937 364.239 170.13V3.89607H384.022V163.536Z" fill="#2B2B2B"/>
<path d="M444.855 58.8494V142.928C444.855 156.85 446.229 166.833 448.977 172.878C451.908 178.739 457.128 181.67 464.638 181.67C468.485 181.67 471.874 180.937 474.805 179.472C477.919 177.823 480.667 175.717 483.048 173.152C485.429 170.588 487.536 167.657 489.367 164.36C491.199 161.063 492.665 157.674 493.764 154.194V58.8494H513.547V157.216C513.547 163.81 513.73 170.68 514.097 177.823C514.646 184.784 515.379 190.921 516.295 196.233H502.282L497.336 176.999H496.511C493.397 183.044 488.91 188.356 483.048 192.936C477.186 197.332 469.859 199.53 461.066 199.53C455.205 199.53 450.076 198.797 445.68 197.332C441.283 195.866 437.528 193.21 434.414 189.364C431.3 185.517 428.919 180.296 427.27 173.702C425.805 166.924 425.072 158.315 425.072 147.874V58.8494H444.855Z" fill="#2B2B2B"/>
<path d="M543.934 173.702C547.598 175.9 551.903 177.823 556.849 179.472C561.977 180.937 567.198 181.67 572.51 181.67C578.555 181.67 583.684 180.205 587.897 177.274C592.11 174.16 594.217 169.214 594.217 162.437C594.217 156.758 592.935 152.087 590.37 148.423C587.806 144.76 584.508 141.463 580.478 138.532C576.632 135.601 572.419 132.945 567.839 130.564C563.26 127.999 558.955 124.977 554.925 121.496C551.078 118.016 547.873 113.894 545.308 109.132C542.744 104.369 541.462 98.3243 541.462 90.9971C541.462 79.2738 544.576 70.4812 550.804 64.6195C557.215 58.5747 566.191 55.5522 577.731 55.5522C585.241 55.5522 591.744 56.2849 597.239 57.7504C602.735 59.0326 607.497 60.8644 611.527 63.2457L606.307 79.7317C602.826 77.8999 598.796 76.4345 594.217 75.3354C589.637 74.0532 584.966 73.4121 580.204 73.4121C573.609 73.4121 568.755 74.7859 565.641 77.5336C562.71 80.2812 561.245 84.5859 561.245 90.4476C561.245 95.0271 562.527 98.9654 565.091 102.263C567.656 105.377 570.862 108.307 574.708 111.055C578.738 113.62 583.043 116.276 587.622 119.023C592.202 121.771 596.415 125.068 600.262 128.915C604.292 132.579 607.589 137.066 610.153 142.379C612.718 147.508 614 154.01 614 161.887C614 167.016 613.176 171.87 611.527 176.45C609.878 181.029 607.314 185.059 603.834 188.539C600.536 191.837 596.323 194.493 591.194 196.508C586.249 198.523 580.387 199.53 573.609 199.53C565.549 199.53 558.589 198.706 552.727 197.057C546.865 195.592 541.92 193.577 537.89 191.012L543.934 173.702Z" fill="#2B2B2B"/>
</svg>
