<svg width="240" height="391" viewBox="0 0 240 391" fill="none" xmlns="http://www.w3.org/2000/svg">
<path d="M129.481 262.68V171.093C146.268 172.536 162.334 178.305 176.414 187.68L186.342 172.716C169.193 161.358 149.698 154.687 129.481 153.064V109.795C149.156 105.649 163.778 88.3411 163.778 67.4277V0H146.629V67.4277C146.629 81.8507 134.896 93.5695 120.275 93.5695C105.653 93.5695 93.9201 81.8507 93.9201 67.4277V0H76.7715V67.4277C76.7715 88.1608 91.5734 105.649 111.069 109.795V153.064C49.5144 157.752 0.95697 209.134 0.95697 271.694C0.95697 334.254 54.3882 390.684 120.094 390.684C185.8 390.684 239.231 337.319 239.231 271.694V262.68H129.481V262.68ZM120.455 372.655C64.6773 372.655 19.3691 327.403 19.3691 271.694C19.3691 219.05 59.984 175.781 111.43 171.093V280.708H221.18C216.667 332.09 173.164 372.655 120.455 372.655Z" fill="#2B2B2B"/>
</svg>
