<svg width="952" height="392" viewBox="0 0 952 392" fill="none" xmlns="http://www.w3.org/2000/svg">
<path d="M129.481 263.355V171.768C146.268 173.211 162.334 178.98 176.414 188.355L186.342 173.391C169.193 162.033 149.698 155.362 129.481 153.74V110.47C149.156 106.324 163.778 89.0162 163.778 68.1028V0.675049H146.629V68.1028C146.629 82.5258 134.896 94.2445 120.275 94.2445C105.653 94.2445 93.9201 82.5258 93.9201 68.1028V0.675049H76.7715V68.1028C76.7715 88.8359 91.5734 106.324 111.069 110.47V153.74C49.5144 158.427 0.95697 209.809 0.95697 272.369C0.95697 334.929 54.3882 391.359 120.094 391.359C185.8 391.359 239.231 337.994 239.231 272.369V263.355H129.481V263.355ZM120.455 373.33C64.6773 373.33 19.3691 328.078 19.3691 272.369C19.3691 219.725 59.984 176.456 111.43 171.768V281.383H221.18C216.667 332.765 173.164 373.33 120.455 373.33Z" fill="#2B2B2B"/>
<path d="M345.6 271.355C349.081 273.736 353.935 276.026 360.163 278.224C366.574 280.239 373.81 281.246 381.87 281.246C392.128 281.246 400.462 278.773 406.873 273.827C413.285 268.698 416.49 260.73 416.49 249.923C416.49 242.779 414.658 236.551 410.995 231.239C407.331 225.926 402.752 221.072 397.257 216.676C391.761 212.097 385.808 207.7 379.397 203.487C373.169 199.091 367.307 194.328 361.812 189.199C356.316 183.887 351.737 177.842 348.073 171.065C344.41 164.287 342.578 156.136 342.578 146.61C342.578 131.223 347.157 119.866 356.316 112.539C365.658 105.029 377.748 101.274 392.586 101.274C401.744 101.274 409.896 102.098 417.04 103.747C424.184 105.395 429.954 107.502 434.35 110.066L427.756 128.201C424.458 126.186 419.696 124.354 413.468 122.706C407.423 121.057 400.371 120.233 392.311 120.233C382.419 120.233 375.092 122.706 370.329 127.652C365.567 132.414 363.185 138.459 363.185 145.786C363.185 152.197 365.017 157.876 368.681 162.822C372.344 167.767 376.924 172.439 382.419 176.835C387.915 181.231 393.776 185.719 400.004 190.298C406.415 194.695 412.369 199.64 417.864 205.136C423.359 210.631 427.939 216.859 431.602 223.82C435.266 230.781 437.098 239.024 437.098 248.549C437.098 264.669 432.335 277.308 422.81 286.467C413.285 295.626 399.821 300.205 382.419 300.205C371.428 300.205 362.361 299.198 355.217 297.183C348.256 295.168 342.67 292.878 338.456 290.313L345.6 271.355Z" fill="#2B2B2B"/>
<path d="M466.425 159.524H486.208V296.908H466.425V159.524ZM462.853 117.76C462.853 113.364 464.044 109.792 466.425 107.044C468.989 104.296 472.287 102.923 476.316 102.923C480.346 102.923 483.644 104.296 486.208 107.044C488.956 109.609 490.33 113.18 490.33 117.76C490.33 122.156 488.956 125.637 486.208 128.201C483.644 130.582 480.346 131.773 476.316 131.773C472.287 131.773 468.989 130.491 466.425 127.926C464.044 125.362 462.853 121.973 462.853 117.76Z" fill="#2B2B2B"/>
<path d="M609.248 303.228C609.248 320.996 605.309 334.093 597.433 342.519C589.556 350.945 578.108 355.158 563.087 355.158C553.928 355.158 546.418 354.334 540.556 352.686C534.694 351.22 529.932 349.48 526.268 347.465L532.038 330.429C535.702 332.078 539.732 333.635 544.128 335.1C548.524 336.566 553.928 337.299 560.339 337.299C571.513 337.299 579.115 334.185 583.145 327.957C587.358 321.728 589.465 311.287 589.465 296.633V286.467H588.64C585.709 290.68 581.954 293.977 577.375 296.358C572.795 298.74 566.934 299.93 559.79 299.93C544.952 299.93 534.053 294.252 527.092 282.895C520.132 271.355 516.651 253.312 516.651 228.766C516.651 205.136 521.139 187.276 530.115 175.186C539.274 163.096 552.737 157.052 570.506 157.052C579.115 157.052 586.534 157.876 592.762 159.524C598.99 161.173 604.485 163.096 609.248 165.295V303.228ZM589.465 179.308C583.969 176.377 576.917 174.911 568.307 174.911C558.965 174.911 551.455 179.216 545.777 187.825C540.098 196.252 537.259 209.807 537.259 228.491C537.259 236.184 537.717 243.328 538.633 249.923C539.549 256.334 541.106 262.012 543.304 266.958C545.502 271.721 548.25 275.476 551.547 278.224C555.027 280.788 559.24 282.07 564.186 282.07C571.147 282.07 576.642 280.239 580.672 276.575C584.702 272.912 587.633 267.416 589.465 260.089V179.308Z" fill="#2B2B2B"/>
<path d="M644.594 159.524H664.377V296.908H644.594V159.524ZM641.022 117.76C641.022 113.364 642.213 109.792 644.594 107.044C647.158 104.296 650.456 102.923 654.486 102.923C658.515 102.923 661.813 104.296 664.377 107.044C667.125 109.609 668.499 113.18 668.499 117.76C668.499 122.156 667.125 125.637 664.377 128.201C661.813 130.582 658.515 131.773 654.486 131.773C650.456 131.773 647.158 130.491 644.594 127.926C642.213 125.362 641.022 121.973 641.022 117.76Z" fill="#2B2B2B"/>
<path d="M722.022 264.211C722.022 270.622 722.847 275.201 724.495 277.949C726.327 280.697 728.8 282.07 731.914 282.07C735.761 282.07 740.249 281.063 745.377 279.048L747.301 294.985C744.92 296.45 741.531 297.641 737.134 298.556C732.921 299.472 729.075 299.93 725.594 299.93C718.634 299.93 712.955 297.824 708.559 293.611C704.346 289.214 702.239 281.613 702.239 270.805V104.571H722.022V264.211Z" fill="#2B2B2B"/>
<path d="M782.855 159.524V243.603C782.855 257.525 784.229 267.508 786.977 273.553C789.908 279.414 795.128 282.345 802.638 282.345C806.485 282.345 809.874 281.613 812.805 280.147C815.919 278.499 818.667 276.392 821.048 273.827C823.429 271.263 825.536 268.332 827.367 265.035C829.199 261.738 830.665 258.349 831.764 254.869V159.524H851.547V257.891C851.547 264.485 851.73 271.355 852.097 278.498C852.646 285.459 853.379 291.596 854.295 296.908H840.282L835.336 277.674H834.511C831.397 283.719 826.91 289.031 821.048 293.611C815.186 298.007 807.859 300.205 799.066 300.205C793.205 300.205 788.076 299.472 783.68 298.007C779.283 296.542 775.528 293.885 772.414 290.039C769.3 286.192 766.919 280.971 765.27 274.377C763.805 267.599 763.072 258.99 763.072 248.549V159.524H782.855Z" fill="#2B2B2B"/>
<path d="M881.934 274.377C885.598 276.575 889.903 278.499 894.849 280.147C899.977 281.613 905.198 282.345 910.51 282.345C916.555 282.345 921.684 280.88 925.897 277.949C930.11 274.835 932.217 269.889 932.217 263.112C932.217 257.433 930.935 252.762 928.37 249.098C925.806 245.435 922.508 242.138 918.478 239.207C914.632 236.276 910.419 233.62 905.839 231.239C901.26 228.674 896.955 225.652 892.925 222.171C889.078 218.691 885.873 214.569 883.308 209.807C880.744 205.044 879.462 198.999 879.462 191.672C879.462 179.949 882.576 171.156 888.804 165.295C895.215 159.25 904.191 156.227 915.731 156.227C923.241 156.227 929.744 156.96 935.239 158.425C940.735 159.708 945.497 161.539 949.527 163.921L944.307 180.407C940.826 178.575 936.796 177.11 932.217 176.01C927.637 174.728 922.966 174.087 918.204 174.087C911.609 174.087 906.755 175.461 903.641 178.209C900.71 180.956 899.245 185.261 899.245 191.123C899.245 195.702 900.527 199.64 903.091 202.938C905.656 206.052 908.862 208.983 912.708 211.73C916.738 214.295 921.043 216.951 925.622 219.698C930.202 222.446 934.415 225.743 938.262 229.59C942.292 233.254 945.589 237.741 948.153 243.054C950.718 248.183 952 254.685 952 262.562C952 267.691 951.176 272.545 949.527 277.125C947.878 281.704 945.314 285.734 941.834 289.214C938.536 292.512 934.323 295.168 929.194 297.183C924.249 299.198 918.387 300.205 911.609 300.205C903.549 300.205 896.589 299.381 890.727 297.732C884.865 296.267 879.92 294.252 875.89 291.687L881.934 274.377Z" fill="#2B2B2B"/>
</svg>
